/* XPM */
static char *a6751196e53341fd962fd3c48180ba66gBgHSPS5L6xXAO9y[] = {
/* columns rows colors chars-per-pixel */
"64 64 2 1 ",
"  c #86BC42",
". c #A5DF5B",
/* pixels */
"................................................................",
"................................................................",
"................................................................",
"................................................................",
"................................................................",
"................................................................",
"................................................................",
"..............   ...............................................",
"..............   ...............................................",
"..............   ...............................................",
".......   ....   ...............................................",
".......   ....   ....   ........................................",
".......   ....   ....   ........................................",
".......      .   ....   ........................................",
".......      .   .      ........................................",
".......      .   .      ........................................",
"..........   .....      ........................................",
"..........   .....   ...........................................",
"..........   .....   ...........................................",
"..................   ...........................................",
"................................................................",
"................................................................",
"................................................................",
"................................................................",
"................................................................",
"................................................................",
"................................................................",
"................................................................",
"................................................................",
"................................................................",
"................................................................",
"................................................................",
"................................................................",
"................................................................",
"................................................................",
"................................................................",
"................................................................",
"................................................................",
"................................................................",
"................................................................",
"................................................................",
"................................................................",
"................................................................",
"................................................................",
"................................................................",
"................................................................",
"................................................................",
"................................................................",
"..............................................   ...............",
"..............................................   .....   .......",
"..............................................   .....   .......",
"......................................................   .......",
"...................................................      .......",
"...................................................      .......",
"...................................................      .......",
"...................................................   ..........",
"...................................................   ..........",
"...................................................   ..........",
"................................................................",
"................................................................",
"................................................................",
"................................................................",
"................................................................",
"................................................................"
};
