/* XPM */
static char *_0bdcdbc5a0944b1ee375e9b1403258fncJtFzMHUBfTIZea[] = {
/* columns rows colors chars-per-pixel */
"64 64 7 1 ",
"  c black",
". c #86BC42",
"X c #A5DF5B",
"o c #ADC479",
"O c #D9D3C9",
"+ c #E9E5DF",
"@ c white",
/* pixels */
"XXXXXXXXXXXXXXXXXXXXXXXXXXXXXXXXXXXXXXXXXXXXXXXXXXXXXXXXXXXXXXXX",
"XXXXXXXXXXXXXXXXXXXXXXXXXXXXXXXXXXXXXXXXXXXXXXXXXXXXXXXXXXXXXXXX",
"XXXXXXXXXXXXXXXXXXXXXXXXXXXXXXXXXXXXXXXXXXXXXXXXXXXXXXXXXXXXXXXX",
"XXXXXXXXXXXXXXXXXXXXXXXXXXXXXXXXXXXXXXXXXX        XXXXXXXXXXXXXX",
"XXXXXXXXXXXXXXXXXXXXXXXXXXXXXXXXXXXXXXXXXX        XXXXXXXXXXXXXX",
"XXXXXXXXXXXXXXXXXXXXXXXXXXXXXXXXXXXXXXXXXX        XXXXXXXXXXXXXX",
"XXXXXXXXXXXXXXXXXXXXXXXXXXXXXXXXXXXXXXXXXX        XXXXXXXXXXXXXX",
"XXXXXXXXXXXXXX...XXXXXXXXXXXXXXXXXXXXX    @@@@@@@@    XXXXXXXXXX",
"XXXXXXXXXXXXXX...XXXXXXXXXXXXXXXXXXXXX    @@@@@@@@    XXXXXXXXXX",
"XXXXXXXXXXXXXX...XXXXXXXXXXXXXXXXXXXXX    @@@@@@@@    XXXXXXXXXX",
"XXXXXXX...XXXX...XXXXXXXXXXXXXXXXXXXXX    @@@@@@@@    XXXXXXXXXX",
"XXXXXXX...XXXX...XXXX...XXXXXXXXXXXXXX    @@@@@@@@        XXXXXX",
"XXXXXXX...XXXX...XXXX...XXXXXXXXXXXXXX    @@@@@@@@        XXXXXX",
"XXXXXXX......X...XXXX...XXXXXXXXXXXXXX    @@@@@@@@        XXXXXX",
"XXXXXXX......X...X......XXXXXXXXXXXXXX    @@@@@@@@        XXXXXX",
"XXXXXXX......X...X......XXXXXXXXXXXXXX    @@@@@@@@++++OOOO    XX",
"XXXXXXXXXX...XXXXX......XXXXXXXXXXXXXX    @@@@@@@@++++OOOO    XX",
"XXXXXXXXXX...XXXXX...XXXXXXXXXXXXXXXXX    @@@@@@@@++++OOOO    XX",
"XXXXXXXXXX...XXXXX...XXXXXXXXXXXXXXXXX    @@@@@@@@++++OOOO    XX",
"XXXXXXXXXXXXXXXXXX...XXXXXXXXXXXXX    @@@@@@@@++++OOOOOOOO    XX",
"XXXXXXXXXXXXXXXXXXXXXXXXXXXXXXXXXX    @@@@@@@@++++OOOOOOOO    XX",
"XXXXXXXXXXXXXXXXXXXXXXXXXXXXXXXXXX    @@@@@@@@++++OOOOOOOO    XX",
"XXXXXXXXXXXXXXXXXXXXXXXXXXXXXXXXXX    @@@@@@@@++++OOOOOOOO    XX",
"XXXXXXXXXXXXXXXXXXXXXXXXXXXXXX    @@@@@@@@++++            XXXXXX",
"XXXXXXXXXXXXXXXXXXXXXXXXXXXXXX    @@@@@@@@++++            XXXXXX",
"XXXXXXXXXXXXXXXXXXXXXXXXXXXXXX    @@@@@@@@++++            XXXXXX",
"XXXXXXXXXXXXXXXXXXXXXXXXXXXXXX    @@@@@@@@++++            XXXXXX",
"XXXXXXXXXXXXXXXXXXXXXXXXXX    @@@@@@@@++++    XXXXXXXXXXXXXXXXXX",
"XXXXXXXXXXXXXXXXXXXXXXXXXX    @@@@@@@@++++    XXXXXXXXXXXXXXXXXX",
"XXXXXXXXXXXXXXXXXXXXXXXXXX    @@@@@@@@++++    XXXXXXXXXXXXXXXXXX",
"XXXXXXXXXXXXXXXXXXXXXXXXXX    @@@@@@@@++++    XXXXXXXXXXXXXXXXXX",
"XXXXXXXXXXXXXXXXXXXXXX    @@@@@@@@++++    XXXXXXXXXXXXXXXXXXXXXX",
"XXXXXXXXXXXXXXXXXXXXXX    @@@@@@@@++++    XXXXXXXXXXXXXXXXXXXXXX",
"XXXXXXXXXXXXXXXXXXXXXX    @@@@@@@@++++    XXXXXXXXXXXXXXXXXXXXXX",
"XXXXXXXXXXXXXXXXXXXXXX    @@@@@@@@++++    XXXXXXXXXXXXXXXXXXXXXX",
"XXXXXXXXXXXXXXXXXX    @@@@@@@@++++    XXXXXXXXXXXXXXXXXXXXXXXXXX",
"XXXXXXXXXXXXXXXXXX    @@@@@@@@++++    XXXXXXXXXXXXXXXXXXXXXXXXXX",
"XXXXXXXXXXXXXXXXXX    @@@@@@@@++++    XXXXXXXXXXXXXXXXXXXXXXXXXX",
"XXXXXXXXXXXXXXXXXX    @@@@@@@@++++    XXXXXXXXXXXXXXXXXXXXXXXXXX",
"XXXXXX            @@@@@@@@++++    XXXXXXXXXXXXXXXXXXXXXXXXXXXXXX",
"XXXXXX            @@@@@@@@++++    XXXXXXXXXXXXXXXXXXXXXXXXXXXXXX",
"XXXXXX            @@@@@@@@++++    XXXXXXXXXXXXXXXXXXXXXXXXXXXXXX",
"XXXXXX            @@@@@@@@++++    XXXXXXXXXXXXXXXXXXXXXXXXXXXXXX",
"XX    @@@@@@@@@@@@@@@@++++    XXXXXXXXXXXXXXXXXXXXXXXXXXXXXXXXXX",
"XX    @@@@@@@@@@@@@@@@++++    XXXXXXXXXXXXXXXXXXXXXXXXXXXXXXXXXX",
"XX    @@@@@@@@@@@@@@@@++++    XXXXXXXXXXXXXXXXXXXXXXXXXXXXXXXXXX",
"XX    @@@@@@@@@@@@@@@@++++    XXXXXXXXXXXXXXXXXXXXXXXXXXXXXXXXXX",
"XX    @@@@@@@@@@@@++++    XXXXXXXXXXXXXXXXXXXXXXXXXXXXXXXXXXXXXX",
"XX    @@@@@@@@@@@@++++    XXXXXXXXXXXXXXXXXXXX...XXXXXXXXXXXXXXX",
"XX    @@@@@@@@@@@@++++    XXXXXXXXXXXXXXXXXXXX...XXXXX...XXXXXXX",
"XX    @@@@@@@@@@@@++++    XXXXXXXXXXXXXXXXXXXX...XXXXX...XXXXXXX",
"XXXXXX        ++++OOOO    XXXXXXXXXXXXXXXXXXXXXXXXXXXX...XXXXXXX",
"XXXXXX        ++++OOOO    XXXXXXXXXXXXXXXXXXXXXXXXX......XXXXXXX",
"XXXXXX        ++++OOOO    XXXXXXXXXXXXXXXXXXXXXXXXX......XXXXXXX",
"XXXXXX        ++++OOOO    XXXXXXXXXXXXXXXXXXXXXXXXX......XXXXXXX",
"XXXXXXXXXX    OOOOoooo    XXXXXXXXXXXXXXXXXXXXXXXXX...XXXXXXXXXX",
"XXXXXXXXXX    OOOOoooo    XXXXXXXXXXXXXXXXXXXXXXXXX...XXXXXXXXXX",
"XXXXXXXXXX    OOOOoooo    XXXXXXXXXXXXXXXXXXXXXXXXX...XXXXXXXXXX",
"XXXXXXXXXX    OOOOoooo    XXXXXXXXXXXXXXXXXXXXXXXXXXXXXXXXXXXXXX",
"XXXXXXXXXXXXXX        XXXXXXXXXXXXXXXXXXXXXXXXXXXXXXXXXXXXXXXXXX",
"XXXXXXXXXXXXXX        XXXXXXXXXXXXXXXXXXXXXXXXXXXXXXXXXXXXXXXXXX",
"XXXXXXXXXXXXXX        XXXXXXXXXXXXXXXXXXXXXXXXXXXXXXXXXXXXXXXXXX",
"XXXXXXXXXXXXXX        XXXXXXXXXXXXXXXXXXXXXXXXXXXXXXXXXXXXXXXXXX",
"XXXXXXXXXXXXXXXXXXXXXXXXXXXXXXXXXXXXXXXXXXXXXXXXXXXXXXXXXXXXXXXX"
};
