/* XPM */
static char *_43ca367a9254e9a90e3154314cc9ad5pbOg0YGTS3ufgLSO[] = {
/* columns rows colors chars-per-pixel */
"64 64 5 1 ",
"  c black",
". c #F91516",
"X c #86BC42",
"o c #A5DF5B",
"O c white",
/* pixels */
"oooooooooooooooooooooooooooooooooooooooooooooooooooooooooooooooo",
"oooooooooooooooooooooooooooooooooooooooooooooooooooooooooooooooo",
"oooooooooooooooooooooooooooooooooooooooooooooooooooooooooooooooo",
"oooooooooooooooooooooooooooooooooooooooooooooooooooooooooooooooo",
"oooooooooooooooooooooooooooooooooooooooooooooooooooooooooooooooo",
"oooooooooooooooooooooooooooooooooooooooooooooooooooooooooooooooo",
"oooooooooooooooooooooooooooooooooooooooooooooooooooooooooooooooo",
"ooooooooooooooXXXooooooooooooooooooooooooooooooooooooooooooooooo",
"ooooooooooooooXXXooooooooooooooooooooooooooooooooooooooooooooooo",
"ooooooooooooooXXXooooooooooooooooooooooooooooooooooooooooooooooo",
"oooooooXXXooooXXXooooooooooooooooooooooooooooooooooooooooooooooo",
"oooooooXXXooooXXXooooXXXoooooooooooooooooooooooooooooooooooooooo",
"oooooooXXXooooXXXooooXXXoooooooooooooooooooooooooooooooooooooooo",
"oooooooXXXXXXoXXXooooXXXoooooooooooooooooooooooooooooooooooooooo",
"oooooooXXXXXXoXXXoXXXXXXoooooooooooooooooooooooooooooooooooooooo",
"oooooooXXXXXXoXXXoXXXXXXoooooooooooooooooooooooooooooooooooooooo",
"ooooooooooXXXoooooXXXXXXoooooooooooooooooooooooooooooooooooooooo",
"ooooooooooXXXoooooX         ooooooooo         oooooooooooooooooo",
"ooooooooooXXXoooooX         ooooooooo         oooooooooooooooooo",
"ooooooooooooooooooX         ooooooooo         oooooooooooooooooo",
"oooooooooooooooo   .........   ooo   .........   ooooooooooooooo",
"oooooooooooooooo   .........   ooo   .........   ooooooooooooooo",
"oooooooooooooooo   .........   ooo   .........   ooooooooooooooo",
"ooooooooooooo   ...OOOOOO......   ...............   oooooooooooo",
"ooooooooooooo   ...OOOOOO......   ...............   oooooooooooo",
"ooooooooooooo   ...OOOOOO......   ...............   oooooooooooo",
"ooooooooooooo   ...OOO...........................   oooooooooooo",
"ooooooooooooo   ...OOO...........................   oooooooooooo",
"ooooooooooooo   ...OOO...........................   oooooooooooo",
"ooooooooooooo   .................................   oooooooooooo",
"ooooooooooooo   .................................   oooooooooooo",
"ooooooooooooo   .................................   oooooooooooo",
"oooooooooooooooo   ...........................   ooooooooooooooo",
"oooooooooooooooo   ...........................   ooooooooooooooo",
"oooooooooooooooo   ...........................   ooooooooooooooo",
"ooooooooooooooooooo   .....................   oooooooooooooooooo",
"ooooooooooooooooooo   .....................   oooooooooooooooooo",
"ooooooooooooooooooo   .....................   oooooooooooooooooo",
"oooooooooooooooooooooo   ...............   ooooooooooooooooooooo",
"oooooooooooooooooooooo   ...............   ooooooooooooooooooooo",
"oooooooooooooooooooooo   ...............   ooooooooooooooooooooo",
"ooooooooooooooooooooooooo   .........   oooooooooooooooooooooooo",
"ooooooooooooooooooooooooo   .........   oooooooooooooooooooooooo",
"ooooooooooooooooooooooooo   .........   oooooooooooooooooooooooo",
"oooooooooooooooooooooooooooo   ...   ooooooooooooooooooooooooooo",
"oooooooooooooooooooooooooooo   ...   ooooooooooooooooooooooooooo",
"oooooooooooooooooooooooooooo   ...   ooooooooooooooooooooooooooo",
"ooooooooooooooooooooooooooooooo   oooooooooooooooooooooooooooooo",
"ooooooooooooooooooooooooooooooo   ooooooooooooXXXooooooooooooooo",
"ooooooooooooooooooooooooooooooo   ooooooooooooXXXoooooXXXooooooo",
"ooooooooooooooooooooooooooooooooooooooooooooooXXXoooooXXXooooooo",
"ooooooooooooooooooooooooooooooooooooooooooooooooooooooXXXooooooo",
"oooooooooooooooooooooooooooooooooooooooooooooooooooXXXXXXooooooo",
"oooooooooooooooooooooooooooooooooooooooooooooooooooXXXXXXooooooo",
"oooooooooooooooooooooooooooooooooooooooooooooooooooXXXXXXooooooo",
"oooooooooooooooooooooooooooooooooooooooooooooooooooXXXoooooooooo",
"oooooooooooooooooooooooooooooooooooooooooooooooooooXXXoooooooooo",
"oooooooooooooooooooooooooooooooooooooooooooooooooooXXXoooooooooo",
"oooooooooooooooooooooooooooooooooooooooooooooooooooooooooooooooo",
"oooooooooooooooooooooooooooooooooooooooooooooooooooooooooooooooo",
"oooooooooooooooooooooooooooooooooooooooooooooooooooooooooooooooo",
"oooooooooooooooooooooooooooooooooooooooooooooooooooooooooooooooo",
"oooooooooooooooooooooooooooooooooooooooooooooooooooooooooooooooo",
"oooooooooooooooooooooooooooooooooooooooooooooooooooooooooooooooo"
};
