/* XPM */
static char *b777d6cff6144e77c179e75d99aabd5as1NKehKi0JAIAsQo[] = {
/* columns rows colors chars-per-pixel */
"64 64 9 1 ",
"  c #231F20",
". c #6D2209",
"X c #F6043F",
"o c #86BC42",
"O c #A5DF5B",
"+ c #F5DD5A",
"@ c #0400AD",
"# c #FFD5B8",
"$ c white",
/* pixels */
"OOOOOOOOOOOOOOOOOOOOOOOOOOOOOOOOOOOOOOOOOOOOOOOOOOOOOOOOOOOOOOOO",
"OOOOOOOOOOOOOOOOOOOOOOOOOOOOOOOOOOOOOOOOOOOOOOOOOOOOOOOOOOOOOOOO",
"OOOOOOOOOOOOOOOOOOOOOOOOOOOOOOOOOOOOOOOOOOOOOOOOOOOOOOOOOOOOOOOO",
"OOOOOOOOOOOOOOOOOOOOOOOOOOOOOOOOOOOOOOOOOOOOOOOOOOOOOOOOOOOOOOOO",
"OOOOOOOOOOOOOOOOOOOOOOOOOOOOOOOOOOOOOOOOOOOOOOOOOOOOOOOOOOOOOOOO",
"OOOOOOOOOOOOOOOOOOOOOOOOOOOOOOOOOOOOOOOOOOOOOOOOOOOOOOOOOOOOOOOO",
"OOOOOOOOOOOOOOOOOOOOOOOOOOOOOOOOOOOOOOOOOOOOOOOOOOOOOOOOOOOOOOOO",
"OOOOOOOOOOOOOOoooOOOOOOOOOOOOOOOOOOOOOOOOOOOOOOOOOOOOOOOOOOOOOOO",
"OOOOOOOOOOOOOOoooOOOOOO                   OOOOOOOOOOOOOOOOOOOOOO",
"OOOOOOOOOOOOOOoooOOOOOO                   OOOOOOOOOOOOOOOOOOOOOO",
"OOOOOOOoooOOOOoooOOOOOO                   OOOOOOOOOOOOOOOOOOOOOO",
"OOOOOOOoooOOOOoooOOOOoo                   OOOOOOOOOOOOOOOOOOOOOO",
"OOOOOOOoooOOOOoooOO                            OOOOOOOOOOOOOOOOO",
"OOOOOOOooooooOoooOO                  ####      OOOOOOOOOOOOOOOOO",
"OOOOOOOooooooOoooOo                  ####      OOOOOOOOOOOOOOOOO",
"OOOOOOOooooooOoooOo                  ####      OOOOOOOOOOOOOOOOO",
"OOOOOOOOOOoooOO                      ####      OOOOOOOOOOOOOOOOO",
"OOOOOOOOOOoooOO            ####################     OOOOOOOOOOOO",
"OOOOOOOOOOoooOO            ####################     OOOOOOOOOOOO",
"OOOOOOOOOOOO               ####################     OOOOOOOOOOOO",
"OOOOOOOOOOOO       ############################     OOOOOOOOOOOO",
"OOOOOOOOOOOO       ############################     OOOOOOOOOOOO",
"OOOOOOOOOOOO       ####    ##########    ##########OOOOOOOOOOOOO",
"OOOOOOOOOOOOOO#########    ##########    ##########OOOOOOOOOOOOO",
"OOOOOOOOOOOOOO#########    ##########    ##########OOOOOOOOOOOOO",
"OOOOOOOOOOOOOO#########    ##########    ##########OOOOOOOOOOOOO",
"OOOOOOOOOOOOOO#####################################OOOOOOOOOOOOO",
"OOOOOOOOOOOOOO#####################################OOOOOOOOOOOOO",
"OOOOOOOOOOOOOO#####################################OOOOOOOOOOOOO",
"OOOOOOOOOOOOOO####################################OOOOOOOOOOOOOO",
"OOOOOOOOOOOOOO####################################OOOOOOOOOOOOOO",
"OOOOOOOOOOOOOOOOOO############################         OOOOOOOOO",
"OOOOOOOOOOOOOOOOOO##########XXXXXXXX##########         OOOOOOOOO",
"OOOOOOOOOOOOOOOOOO##########XXXXXXXX##########         OOOOOOOOO",
"OOOOOOOOOOOOOOOOOO##########XXXXXXXX##########         OOOOOOOOO",
"OOOOOOOOOOOOOOOOOO##########XXXXXXXX##########         OOOOOOOOO",
"OOOOOOOOOOOOOOOOOO$$$$$$$$$$@@@@@@@@$$$$$$$$$$OOO      OOOOOOOOO",
"OOOOOOOOOOOOOOOOOO$$$$$$$$$$@@@@@@@@$$$$$$$$$$OOO      OOOOOOOOO",
"OOOOOOOOOOOOOOOOOO$$$$$$$$$$@@@@@@@@$$$$$$$$$$OOO      OOOOOOOOO",
"OOOOOOOOOOOOOOOOOO$$$$$$$$$$@@@@@@@@$$$$$$$$$$OOO      OOOOOOOOO",
"OOOOOOOOOOOOOOOOOO$$$$$$$$$$@@@@@@@@$$$$$$$$$$OOOOOO    OOOOOOOO",
"OOOOOOOOOOOOOOOOOO####$$$$$$++++++++$$$$$$####OOOOOO    OOOOOOOO",
"OOOOOOOOOOOOOOOOOO####$$$$$$++++++++$$$$$$####OOOOOO    OOOOOOOO",
"OOOOOOOOOOOOOOOOOO####$$$$$$++++++++$$$$$$####OOOOOO    OOOOOOOO",
"OOOOOOOOOOOOOOOOOO####$$$$$$++++++++$$$$$$####OOOOOOOOOOOOOOOOOO",
"OOOOOOOOOOOOOOOOOO####$$$$$$++++++++$$$$$$####OOOOOOOOOOOOOOOOOO",
"OOOOOOOOOOOOOOOOOO####@@@@@@@@@@@@@@@@@@@@####OOOOOOOOOOOOOOOOOO",
"OOOOOOOOOOOOOOOOOO####@@@@@@@@@@@@@@@@@@@@####OOOOOOOOOOOOOOOOOO",
"OOOOOOOOOOOOOOOOOO####@@@@@@@@@@@@@@@@@@@@####oooOOOOOOOOOOOOOOO",
"OOOOOOOOOOOOOOOOOOOOOO@@@@@@@@@@@@@@@@@@@@OOOOoooOOOOOoooOOOOOOO",
"OOOOOOOOOOOOOOOOOOOOOO@@@@@@@@@@@@@@@@@@@@OOOOoooOOOOOoooOOOOOOO",
"OOOOOOOOOOOOOOOOOO@@@@@@@@@@@@@@@@@@@@@@@@@@@@OOOOOOOOoooOOOOOOO",
"OOOOOOOOOOOOOOOOOO@@@@@@@@@@@@@@@@@@@@@@@@@@@@OOOOOooooooOOOOOOO",
"OOOOOOOOOOOOOOOOOO@@@@@@@@@@@@@@@@@@@@@@@@@@@@OOOOOooooooOOOOOOO",
"OOOOOOOOOOOOOOOOOO@@@@@@@@@@@@@@@@@@@@@@@@@@@@OOOOOooooooOOOOOOO",
"OOOOOOOOOOOOOOOOOO@@@@@@@@@@@@@@@@@@@@@@@@@@@@OOOOOoooOOOOOOOOOO",
"OOOOOOOOOOOOOOOOOOOOOOO####OOOOOOOOOO####OOOOOOOOOOoooOOOOOOOOOO",
"OOOOOOOOOOOOOOOOOOOOOOO####OOOOOOOOOO####OOOOOOOOOOoooOOOOOOOOOO",
"OOOOOOOOOOOOOOOOOOOOOOO####OOOOOOOOOO####OOOOOOOOOOOOOOOOOOOOOOO",
"OOOOOOOOOOOOOOOOOOOOOOO####OOOOOOOOOO####OOOOOOOOOOOOOOOOOOOOOOO",
"OOOOOOOOOOOOOOOOOOOOOOO....OOOOOOOOOO....OOOOOOOOOOOOOOOOOOOOOOO",
"OOOOOOOOOOOOOOOOOOOOOOO....OOOOOOOOOO....OOOOOOOOOOOOOOOOOOOOOOO",
"OOOOOOOOOOOOOOOOOOOOOOO....OOOOOOOOOO....OOOOOOOOOOOOOOOOOOOOOOO",
"OOOOOOOOOOOOOOOOOOOOOOO....OOOOOOOOOO....OOOOOOOOOOOOOOOOOOOOOOO"
};
