/* XPM */
static char *_6157e12b69940618b04bb6e6734065fAXmwN1guleJfMpIl[] = {
/* columns rows colors chars-per-pixel */
"64 64 4 1 ",
"  c black",
". c #A5DF5B",
"X c #D7CCB7",
"o c white",
/* pixels */
".....                ....................                .......",
".....                ....................                .......",
".....                ....................                .......",
".....                ....................                .......",
".    oooooooooooooooo    ............    oooooooooooooooo    ...",
".    oooooooooooooooo    ............    oooooooooooooooo    ...",
".    oooooooooooooooo    ............    oooooooooooooooo    ...",
".    oooooooooooooooo    ............    oooooooooooooooo    ...",
".    oooooooo    oooooooo            oooooooo    oooooooo    ...",
".    oooooooo    oooooooo            oooooooo    oooooooo    ...",
".    oooooooo    oooooooo            oooooooo    oooooooo    ...",
".    oooooooo    oooooooo            oooooooo    oooooooo    ...",
".....        oooooooooooooooooooooooooooooooooooo        .......",
".....        oooooooooooooooooooooooooooooooooooo        .......",
".....        oooooooooooooooooooooooooooooooooooo        .......",
".....        oooooooooooooooooooooooooooooooooooo        .......",
".........    oooooooooooooooooooooooooooooooooooo    ...........",
".........    oooooooooooooooooooooooooooooooooooo    ...........",
".........    oooooooooooooooooooooooooooooooooooo    ...........",
".........    oooooooooooooooooooooooooooooooooooo    ...........",
".........    oooo    oooooooooooooooooooo    oooo    ...........",
".........    oooo    oooooooooooooooooooo    oooo    ...........",
".........    oooo    oooooooooooooooooooo    oooo    ...........",
".........    oooo    oooooooooooooooooooo    oooo    ...........",
".....    oooooooo    ooooXXXXXXXXXXXXoooo    oooooooo    .......",
".....    oooooooo    ooooXXXXXXXXXXXXoooo    oooooooo    .......",
".....    oooooooo    ooooXXXXXXXXXXXXoooo    oooooooo    .......",
".....    oooooooo    ooooXXXXXXXXXXXXoooo    oooooooo    .......",
".....    ooooooooooooXXXX            XXXXoooooooooooo    .......",
".....    ooooooooooooXXXX            XXXXoooooooooooo    .......",
".....    ooooooooooooXXXX            XXXXoooooooooooo    .......",
".....    ooooooooooooXXXX            XXXXoooooooooooo    .......",
".....    ooooooooooooXXXXXXXX    XXXXXXXXoooooooooooo    .......",
".....    ooooooooooooXXXXXXXX    XXXXXXXXoooooooooooo    .......",
".....    ooooooooooooXXXXXXXX    XXXXXXXXoooooooooooo    .......",
".....    ooooooooooooXXXXXXXX    XXXXXXXXoooooooooooo    .......",
".........        ooooooooXXXXXXXXXXXXoooooooo        ...........",
".........        ooooooooXXXXXXXXXXXXoooooooo        ...........",
".........        ooooooooXXXXXXXXXXXXoooooooo        ...........",
".........        ooooooooXXXXXXXXXXXXoooooooo        ...........",
".................    oooooooooooooooooooo    ...................",
".................    oooooooooooooooooooo    ...................",
".................    oooooooooooooooooooo    ...................",
".................    oooooooooooooooooooo    ...................",
".................    oooooooooooooooooooo    ...................",
".................    oooooooooooooooooooo    ...................",
".................    oooooooooooooooooooo    ...................",
".................    oooooooooooooooooooo    ...................",
".............    oooooooooooooooooooooooooooo    ....    .......",
".............    oooooooooooooooooooooooooooo    ....    .......",
".............    oooooooooooooooooooooooooooo    ....    .......",
".............    oooooooooooooooooooooooooooo    ....    .......",
".............    oooooooo    oooo    oooooooo        oooo    ...",
".............    oooooooo    oooo    oooooooo        oooo    ...",
".............    oooooooo    oooo    oooooooo        oooo    ...",
".............    oooooooo    oooo    oooooooo        oooo    ...",
".............    oooooooo    oooo    oooooooo    oooooooo    ...",
".............    oooooooo    oooo    oooooooo    oooooooo    ...",
".............    oooooooo    oooo    oooooooo    oooooooo    ...",
".............    oooooooo    oooo    oooooooo    oooooooo    ...",
".................                                        .......",
".................                                        .......",
".................                                        .......",
".................                                        ......."
};
